<svg xmlns="http://www.w3.org/2000/svg" xmlns:xlink="http://www.w3.org/1999/xlink" width="500" zoomAndPan="magnify" viewBox="0 0 375 374.999991" height="500" preserveAspectRatio="xMidYMid meet" version="1.0"><defs><clipPath id="9737b0d524"><path d="M 52.871094 13.835938 L 322.121094 13.835938 L 322.121094 361.085938 L 52.871094 361.085938 Z M 52.871094 13.835938 " clip-rule="nonzero"/></clipPath></defs><g clip-path="url(#9737b0d524)"><path fill="#004aad" d="M 322.121094 334.855469 C 322.121094 242.195312 261.800781 167.121094 187.496094 167.121094 C 113.195312 167.121094 52.875 242.195312 52.875 334.855469 C 52.875 349.304688 113.195312 361.085938 187.496094 361.085938 C 261.800781 361.085938 322.121094 349.304688 322.121094 334.855469 Z M 187.496094 13.835938 C 228.027344 13.835938 260.855469 46.660156 260.855469 87.179688 C 260.855469 127.699219 228.027344 160.523438 187.496094 160.523438 C 146.96875 160.523438 114.136719 127.699219 114.136719 87.179688 C 114.136719 46.660156 146.96875 13.835938 187.496094 13.835938 Z M 187.496094 13.835938 " fill-opacity="1" fill-rule="evenodd"/></g></svg>