<svg xmlns="http://www.w3.org/2000/svg" xmlns:xlink="http://www.w3.org/1999/xlink" width="500" zoomAndPan="magnify" viewBox="0 0 375 374.999991" height="500" preserveAspectRatio="xMidYMid meet" version="1.0"><defs><g/><clipPath id="1248f68de6"><path d="M 18.414062 92.816406 L 145.914062 92.816406 L 145.914062 277.316406 L 18.414062 277.316406 Z M 18.414062 92.816406 " clip-rule="nonzero"/></clipPath><clipPath id="690245abfb"><path d="M 67.683594 151.648438 L 302.433594 151.648438 L 302.433594 282.898438 L 67.683594 282.898438 Z M 67.683594 151.648438 " clip-rule="nonzero"/></clipPath><clipPath id="fa1745d911"><path d="M 230.703125 92.816406 L 356.664062 92.816406 L 356.664062 265.316406 L 230.703125 265.316406 Z M 230.703125 92.816406 " clip-rule="nonzero"/></clipPath></defs><g clip-path="url(#1248f68de6)"><path fill="#004aad" d="M 187.539062 431.066406 C 94.101562 431.066406 18.414062 354.855469 18.414062 261.941406 C 18.414062 169.027344 94.101562 92.816406 187.539062 92.816406 C 280.976562 92.816406 356.664062 168.503906 356.664062 261.941406 C 356.664062 355.375 280.453125 431.066406 187.539062 431.066406 Z M 187.539062 103.253906 C 99.84375 103.253906 28.855469 174.246094 28.855469 261.941406 C 28.855469 349.636719 99.84375 420.625 187.539062 420.625 C 275.234375 420.625 346.222656 349.636719 346.222656 261.941406 C 346.222656 174.246094 274.710938 103.253906 187.539062 103.253906 Z M 187.539062 103.253906 " fill-opacity="1" fill-rule="nonzero"/></g><path stroke-linecap="butt" transform="matrix(9.765169, 0, 0, 9.749999, 123.47074, 78.870734)" fill="none" stroke-linejoin="miter" d="M 0.000196275 0.0000368953 L 13.13401 0.0000368953 " stroke="#004aad" stroke-width="1" stroke-opacity="1" stroke-miterlimit="4"/><path stroke-linecap="butt" transform="matrix(-0.000000000000016839, 9.818181, -9.749999, -0.000000000000016722, 141.22703, 74.275351)" fill="none" stroke-linejoin="miter" d="M -0.000194906 0.0000479924 L 2.750203 0.0000479924 " stroke="#004aad" stroke-width="1" stroke-opacity="1" stroke-miterlimit="4"/><path stroke-linecap="butt" transform="matrix(0.000000000000000604, 9.858736, -9.749999, 0.000000000000000597, 233.771195, 78.871334)" fill="none" stroke-linejoin="miter" d="M -0.0000243714 0.000170615 L 2.586514 0.000170615 " stroke="#004aad" stroke-width="1" stroke-opacity="1" stroke-miterlimit="4"/><path stroke-linecap="butt" transform="matrix(0.0000000000000006, -9.805254, 9.55102, 0.000000000000000585, 128.243403, 78.862312)" fill="none" stroke-linejoin="miter" d="M -0.0000988071 -0.000127293 L 4.666962 -0.000127293 " stroke="#004aad" stroke-width="1" stroke-opacity="1" stroke-miterlimit="4"/><path stroke-linecap="butt" transform="matrix(0.0000000000000006, -9.805254, 9.55102, 0.000000000000000585, 247.108817, 78.862312)" fill="none" stroke-linejoin="miter" d="M -0.0000988071 0.0000584154 L 4.666962 0.0000584154 " stroke="#004aad" stroke-width="1" stroke-opacity="1" stroke-miterlimit="4"/><path stroke-linecap="butt" transform="matrix(9.765169, 0, 0, 10.014814, 123.47074, 29.028151)" fill="none" stroke-linejoin="miter" d="M 0.000196275 -0.0000806269 L 13.13401 -0.0000806269 " stroke="#004aad" stroke-width="1" stroke-opacity="1" stroke-miterlimit="4"/><g clip-path="url(#690245abfb)"><path fill="#004aad" d="M 163.71875 375.15625 C 161.667969 373.4375 160.175781 371.347656 160.605469 369.039062 C 161.769531 362.753906 165.960938 368.578125 165.960938 365.082031 C 165.960938 361.589844 163.863281 360.890625 163.863281 360.890625 C 166.890625 360.195312 168.519531 356.933594 170.613281 355.300781 C 172.714844 353.671875 174.109375 346.6875 174.109375 346.6875 C 183.890625 346.921875 184.820312 333.183594 187.148438 330.15625 C 189.476562 327.128906 200.191406 324.101562 192.273438 320.375 C 184.355469 316.648438 182.027344 317.582031 175.507812 315.015625 C 168.988281 312.457031 164.097656 312.691406 164.097656 312.691406 C 165.027344 311.992188 166.195312 303.375 157.808594 302.445312 C 149.429688 301.511719 142.90625 294.992188 142.90625 294.992188 C 134.753906 295.695312 129.402344 291.035156 129.402344 291.035156 C 123.113281 290.800781 120.320312 297.324219 120.320312 297.324219 C 116.363281 294.761719 113.101562 297.324219 113.101562 297.324219 C 110.074219 295.460938 109.839844 292.199219 109.839844 292.199219 C 109.839844 284.515625 107.746094 285.679688 107.746094 285.679688 C 101.921875 285.679688 103.089844 283.816406 103.089844 283.816406 C 102.855469 280.789062 104.71875 274.96875 104.71875 274.96875 C 101.226562 274.96875 99.363281 277.761719 99.363281 277.761719 C 91.679688 287.542969 88.183594 266.816406 91.910156 261.695312 C 95.636719 256.574219 100.0625 260.066406 100.0625 260.066406 C 100.757812 258.433594 108.910156 256.105469 109.140625 260.066406 C 109.375 264.023438 113.101562 268.679688 113.101562 268.679688 C 113.800781 264.199219 112.925781 255.699219 112.925781 255.699219 C 122.355469 249.9375 120.960938 246.265625 120.960938 246.265625 C 123.929688 234.917969 132.136719 236.3125 132.136719 236.3125 C 130.914062 231.246094 140.519531 228.976562 140.519531 228.976562 C 138.476562 233.515625 147.15625 228.804688 147.15625 228.804688 C 149.773438 226.359375 146.105469 226.886719 146.105469 226.886719 C 140.871094 227.933594 142.964844 221.46875 142.964844 221.46875 C 137.460938 221.046875 134.808594 223.699219 133.992188 224.734375 C 137.765625 219.363281 141.917969 218.847656 141.917969 218.847656 C 151.308594 219.371094 153.585938 218.238281 154.140625 217.628906 C 152.773438 220.214844 149.558594 223.574219 156.238281 223.742188 C 163.222656 223.917969 164.445312 220.945312 160.078125 220.421875 C 155.710938 219.898438 156.9375 217.976562 156.9375 217.976562 C 161.476562 210.816406 151.347656 207.847656 151.523438 207.324219 C 151.695312 206.796875 151.347656 196.148438 149.429688 199.289062 C 147.503906 202.429688 143.488281 202.429688 143.488281 202.429688 C 143.488281 202.429688 142.964844 195.972656 136.675781 195.445312 C 130.390625 194.925781 131.4375 196.84375 131.4375 200.859375 C 131.4375 204.878906 135.457031 204.53125 129.867188 207.324219 C 124.277344 210.117188 124.976562 212.914062 124.101562 216.054688 C 123.230469 219.199219 122.007812 216.578125 122.007812 216.578125 C 122.355469 206.796875 120.4375 207.847656 120.4375 207.847656 C 109.785156 204.53125 113.972656 200.859375 119.386719 194.925781 C 124.800781 188.988281 130.042969 191.953125 130.042969 191.953125 C 135.105469 192.652344 128.644531 188.285156 130.042969 188.285156 C 131.4375 188.285156 135.105469 185.144531 137.378906 182.871094 C 139.648438 180.601562 136.675781 180.082031 133.011719 182.351562 C 129.34375 184.617188 132.484375 176.585938 132.484375 176.585938 C 130.738281 176.0625 130.21875 182.175781 121.308594 183.746094 C 119.972656 183.980469 118.894531 184.078125 118.015625 184.074219 C 136.464844 169.484375 159.757812 160.761719 185.054688 160.761719 C 207.3125 160.761719 228.023438 167.519531 245.246094 179.085938 C 245.1875 179.105469 245.128906 179.125 245.070312 179.148438 C 242.679688 180.195312 243.617188 181.363281 243.617188 181.363281 C 244.78125 185.4375 246.292969 192.421875 243.847656 194.167969 C 241.40625 195.914062 242.6875 197.425781 242.6875 197.425781 C 249.203125 210.46875 247.574219 197.425781 251.652344 202.085938 C 255.726562 206.738281 251.882812 208.605469 256.191406 208.722656 C 260.5 208.839844 262.128906 201.96875 258.402344 199.871094 C 254.675781 197.777344 253.746094 189.394531 253.746094 189.394531 C 255.609375 188.464844 255.839844 189.976562 255.839844 189.976562 C 255.261719 191.257812 257.703125 197.777344 259.917969 198.59375 C 262.128906 199.40625 262.941406 199.988281 263.757812 203.832031 C 264.574219 207.675781 265.503906 207.207031 265.503906 207.207031 C 266.785156 211.75 260.847656 209.886719 254.558594 211.28125 C 248.273438 212.679688 250.023438 216.40625 250.023438 216.40625 L 247.921875 216.40625 L 246.761719 219.316406 C 236.28125 224.671875 244.664062 225.371094 244.664062 225.371094 C 244.664062 225.371094 249.320312 232.355469 243.660156 232.589844 C 237.996094 232.820312 236.515625 236.082031 236.046875 240.507812 C 235.582031 244.933594 242.335938 245.859375 242.335938 245.859375 L 243.660156 248.421875 C 243.660156 248.421875 237.679688 253.078125 236.28125 258.203125 C 234.886719 263.324219 227.433594 269.613281 226.5 271.007812 C 225.570312 272.40625 228.832031 279.625 225.800781 283.816406 C 222.777344 288.007812 225.800781 292.199219 225.800781 292.199219 C 229.0625 292.433594 233.949219 308.265625 240.007812 305.238281 C 240.410156 305.039062 240.808594 304.847656 241.199219 304.679688 C 246.632812 302.273438 250.484375 302.675781 250.484375 302.675781 C 257.9375 299.417969 258.632812 305.472656 258.632812 305.472656 C 263.527344 303.84375 262.828125 308.730469 262.828125 308.730469 C 256.773438 315.484375 262.359375 315.015625 260.265625 324.332031 C 258.171875 333.648438 252.117188 333.882812 251.652344 341.097656 C 251.1875 348.316406 242.800781 358.332031 242.800781 358.332031 C 242.800781 358.332031 243.234375 359.238281 244.894531 359.183594 C 227.738281 370.605469 207.160156 377.269531 185.054688 377.269531 C 177.753906 377.269531 170.621094 376.539062 163.71875 375.15625 Z M 76.796875 269.015625 C 76.796875 266.058594 76.921875 263.132812 77.15625 260.234375 C 79.949219 267.1875 84.363281 270.980469 84.226562 273.574219 C 83.996094 277.992188 83.0625 280.324219 91.679688 283.816406 C 100.292969 287.308594 104.71875 292.667969 106.582031 294.527344 C 108.441406 296.390625 112.402344 301.511719 114.964844 299.652344 C 117.527344 297.785156 123.8125 305.238281 120.554688 308.265625 C 117.292969 311.292969 118.921875 315.953125 118.921875 315.953125 C 118.921875 315.953125 124.042969 333.414062 135.222656 336.441406 C 146.398438 339.46875 144.535156 343.429688 144.535156 343.429688 C 144.277344 359.90625 152.84375 369.335938 160.558594 374.476562 C 112.625 363.347656 76.796875 320.289062 76.796875 269.015625 Z M 254.792969 234.449219 C 254.558594 232.003906 258.632812 233.054688 258.632812 233.054688 C 259.449219 230.375 261.777344 231.421875 261.777344 231.421875 C 261.894531 232.703125 265.621094 236.546875 268.648438 237.710938 C 271.675781 238.875 272.832031 240.78125 270.160156 242.078125 C 267.488281 243.371094 269.8125 244.347656 269.8125 244.347656 C 271.441406 245.628906 273.074219 241.671875 272.957031 239.226562 C 272.839844 236.78125 271.675781 236.3125 269.695312 234.917969 C 267.71875 233.519531 265.035156 229.09375 265.035156 229.09375 C 275.167969 234.101562 275.984375 241.320312 277.496094 243.414062 C 279.007812 245.511719 278.546875 248.304688 280.058594 244.929688 C 281.570312 241.554688 275.632812 240.390625 279.941406 237.710938 C 284.246094 235.035156 282.621094 227.347656 282.621094 227.347656 C 284.476562 230.441406 285.589844 230.25 286.023438 229.976562 C 286.703125 231.730469 287.339844 233.511719 287.929688 235.308594 C 287.40625 234.960938 286.925781 234.742188 286.578125 234.917969 C 285.644531 235.382812 287.046875 236.546875 284.253906 237.128906 C 281.453125 237.710938 282.96875 240.96875 282.96875 240.96875 C 284.019531 247.144531 290.417969 247.375 290.417969 247.375 L 290.417969 256.105469 C 284.945312 256.222656 280.058594 252.613281 280.058594 252.613281 C 276.796875 251.683594 277.261719 256.804688 277.261719 256.804688 C 267.949219 247.722656 265.269531 257.621094 266.320312 248.664062 C 267.367188 239.714844 253.511719 248.421875 248.390625 248.65625 C 243.265625 248.890625 245.710938 245.277344 245.710938 245.277344 C 251.53125 246.207031 251.417969 236.199219 252 236.894531 C 252.582031 237.59375 255.027344 236.894531 254.792969 234.449219 Z M 185.054688 151.632812 C 120.328125 151.632812 67.671875 204.292969 67.671875 269.015625 C 67.671875 333.742188 120.328125 386.398438 185.054688 386.398438 C 249.777344 386.398438 302.433594 333.742188 302.433594 269.015625 C 302.433594 204.292969 249.777344 151.632812 185.054688 151.632812 " fill-opacity="1" fill-rule="nonzero"/></g><path fill="#004aad" d="M 107.980469 273.574219 C 107.980469 273.574219 111.199219 273.105469 116.339844 276.832031 C 121.484375 280.558594 123.347656 276.832031 123.347656 276.832031 C 123.347656 276.832031 111.9375 269.707031 107.980469 273.574219 " fill-opacity="1" fill-rule="nonzero"/><path fill="#004aad" d="M 125.210938 279.277344 C 125.210938 279.277344 126.839844 281.722656 129.867188 281.136719 C 132.894531 280.558594 134.40625 280.617188 136.035156 281.226562 C 136.035156 281.226562 128.234375 276.484375 125.210938 279.277344 " fill-opacity="1" fill-rule="nonzero"/><path fill="#004aad" d="M 236.398438 208.546875 C 236.398438 210.378906 239.277344 210.292969 238.492188 213.960938 C 237.707031 217.625 238.796875 219.269531 239.804688 219.109375 C 239.804688 219.109375 245.304688 218.414062 246.351562 216.84375 C 247.398438 215.269531 248.796875 213.609375 244.253906 212.386719 C 239.714844 211.164062 239.542969 204.878906 238.667969 203.917969 C 237.792969 202.957031 235.085938 203.828125 235.4375 201.910156 C 235.789062 199.988281 230.722656 202.429688 232.730469 204.53125 C 234.738281 206.625 236.398438 206.710938 236.398438 208.546875 " fill-opacity="1" fill-rule="nonzero"/><path fill="#004aad" d="M 232.257812 216.84375 C 232.992188 216.402344 235.699219 216.054688 235.875 213 C 236.046875 209.941406 234.789062 208.808594 234.066406 208.808594 C 233.34375 208.808594 230.757812 208.808594 231.507812 212.824219 C 232.257812 216.84375 232.257812 216.84375 232.257812 216.84375 " fill-opacity="1" fill-rule="nonzero"/><g fill="#004aad" fill-opacity="1"><g transform="translate(11.851064, 333.219732)"><g><path d="M 3.574219 0 L 11.015625 0 L 11.015625 -10.265625 L 14.628906 -10.265625 C 21.15625 -10.265625 26.847656 -13.507812 26.847656 -20.863281 C 26.847656 -28.511719 21.238281 -30.921875 14.421875 -30.921875 L 3.574219 -30.921875 Z M 11.015625 -16.125 L 11.015625 -25.0625 L 14.046875 -25.0625 C 17.621094 -25.0625 19.617188 -23.980469 19.617188 -20.863281 C 19.617188 -17.832031 17.871094 -16.125 14.257812 -16.125 Z M 11.015625 -16.125 "/></g></g></g><g fill="#004aad" fill-opacity="1"><g transform="translate(41.942562, 333.219732)"><g><path d="M 3.574219 0 L 23.027344 0 L 23.027344 -6.234375 L 11.015625 -6.234375 L 11.015625 -30.921875 L 3.574219 -30.921875 Z M 3.574219 0 "/></g></g></g><g fill="#004aad" fill-opacity="1"><g transform="translate(68.293431, 333.219732)"><g><path d="M 10.433594 -12.84375 L 11.097656 -15.460938 C 11.886719 -18.535156 12.71875 -22.152344 13.464844 -25.394531 L 13.632812 -25.394531 C 14.464844 -22.234375 15.253906 -18.535156 16.085938 -15.460938 L 16.75 -12.84375 Z M 19.949219 0 L 27.765625 0 L 18.164062 -30.921875 L 9.269531 -30.921875 L -0.332031 0 L 7.230469 0 L 9.019531 -7.105469 L 18.164062 -7.105469 Z M 19.949219 0 "/></g></g></g><g fill="#004aad" fill-opacity="1"><g transform="translate(97.262745, 333.219732)"><g><path d="M 13.175781 0.582031 C 20.65625 0.582031 24.980469 -3.949219 24.980469 -9.101562 C 24.980469 -13.464844 22.691406 -16.042969 18.871094 -17.582031 L 15.003906 -19.117188 C 12.261719 -20.199219 10.308594 -20.863281 10.308594 -22.570312 C 10.308594 -24.230469 11.71875 -25.144531 14.007812 -25.144531 C 16.417969 -25.144531 18.328125 -24.3125 20.367188 -22.777344 L 24.066406 -27.429688 C 21.363281 -30.132812 17.582031 -31.503906 14.007812 -31.503906 C 7.441406 -31.503906 2.785156 -27.347656 2.785156 -22.152344 C 2.785156 -17.664062 5.820312 -14.960938 9.0625 -13.675781 L 13.007812 -12.011719 C 15.667969 -10.890625 17.375 -10.308594 17.375 -8.519531 C 17.375 -6.859375 16.085938 -5.820312 13.339844 -5.820312 C 10.890625 -5.820312 8.023438 -7.105469 5.820312 -8.976562 L 1.621094 -3.867188 C 4.820312 -0.914062 9.144531 0.582031 13.175781 0.582031 Z M 13.175781 0.582031 "/></g></g></g><g fill="#004aad" fill-opacity="1"><g transform="translate(125.35924, 333.219732)"><g><path d="M 9.558594 0 L 17 0 L 17 -24.769531 L 25.394531 -24.769531 L 25.394531 -30.921875 L 1.207031 -30.921875 L 1.207031 -24.769531 L 9.558594 -24.769531 Z M 9.558594 0 "/></g></g></g><g fill="#004aad" fill-opacity="1"><g transform="translate(153.497302, 333.219732)"><g><path d="M 3.574219 0 L 11.015625 0 L 11.015625 -30.921875 L 3.574219 -30.921875 Z M 3.574219 0 "/></g></g></g><g fill="#004aad" fill-opacity="1"><g transform="translate(169.582234, 333.219732)"><g><path d="M 3.574219 0 L 11.015625 0 L 11.015625 -11.804688 L 21.570312 -11.804688 L 21.570312 -17.996094 L 11.015625 -17.996094 L 11.015625 -24.769531 L 23.316406 -24.769531 L 23.316406 -30.921875 L 3.574219 -30.921875 Z M 3.574219 0 "/></g></g></g><g fill="#004aad" fill-opacity="1"><g transform="translate(196.224046, 333.219732)"><g><path d="M 3.574219 0 L 11.015625 0 L 11.015625 -30.921875 L 3.574219 -30.921875 Z M 3.574219 0 "/></g></g></g><g fill="#004aad" fill-opacity="1"><g transform="translate(212.308979, 333.219732)"><g><path d="M 16.667969 0.582031 C 20.699219 0.582031 24.148438 -0.957031 26.765625 -3.988281 L 22.859375 -8.644531 C 21.40625 -7.066406 19.410156 -5.820312 16.957031 -5.820312 C 12.59375 -5.820312 9.765625 -9.394531 9.765625 -15.542969 C 9.765625 -21.570312 13.050781 -25.144531 17.039062 -25.144531 C 19.242188 -25.144531 20.863281 -24.148438 22.402344 -22.734375 L 26.308594 -27.472656 C 24.1875 -29.632812 20.949219 -31.503906 16.914062 -31.503906 C 9.0625 -31.503906 2.160156 -25.601562 2.160156 -15.296875 C 2.160156 -4.820312 8.8125 0.582031 16.667969 0.582031 Z M 16.667969 0.582031 "/></g></g></g><g fill="#004aad" fill-opacity="1"><g transform="translate(241.569224, 333.219732)"><g><path d="M 10.433594 -12.84375 L 11.097656 -15.460938 C 11.886719 -18.535156 12.71875 -22.152344 13.464844 -25.394531 L 13.632812 -25.394531 C 14.464844 -22.234375 15.253906 -18.535156 16.085938 -15.460938 L 16.75 -12.84375 Z M 19.949219 0 L 27.765625 0 L 18.164062 -30.921875 L 9.269531 -30.921875 L -0.332031 0 L 7.230469 0 L 9.019531 -7.105469 L 18.164062 -7.105469 Z M 19.949219 0 "/></g></g></g><g fill="#004aad" fill-opacity="1"><g transform="translate(270.538526, 333.219732)"><g><path d="M 3.574219 0 L 12.882812 0 C 21.902344 0 28.136719 -4.863281 28.136719 -15.628906 C 28.136719 -26.390625 21.902344 -30.921875 12.46875 -30.921875 L 3.574219 -30.921875 Z M 11.015625 -5.984375 L 11.015625 -25.019531 L 12.011719 -25.019531 C 17 -25.019531 20.53125 -22.984375 20.53125 -15.628906 C 20.53125 -8.269531 17 -5.984375 12.011719 -5.984375 Z M 11.015625 -5.984375 "/></g></g></g><g fill="#004aad" fill-opacity="1"><g transform="translate(302.375663, 333.219732)"><g><path d="M 16.335938 0.582031 C 24.769531 0.582031 30.507812 -5.484375 30.507812 -15.628906 C 30.507812 -25.726562 24.769531 -31.503906 16.335938 -31.503906 C 7.898438 -31.503906 2.160156 -25.769531 2.160156 -15.628906 C 2.160156 -5.484375 7.898438 0.582031 16.335938 0.582031 Z M 16.335938 -5.820312 C 12.261719 -5.820312 9.765625 -9.601562 9.765625 -15.628906 C 9.765625 -21.613281 12.261719 -25.144531 16.335938 -25.144531 C 20.40625 -25.144531 22.941406 -21.613281 22.941406 -15.628906 C 22.941406 -9.601562 20.40625 -5.820312 16.335938 -5.820312 Z M 16.335938 -5.820312 "/></g></g></g><g fill="#004aad" fill-opacity="1"><g transform="translate(336.581857, 333.219732)"><g><path d="M 13.175781 0.582031 C 20.65625 0.582031 24.980469 -3.949219 24.980469 -9.101562 C 24.980469 -13.464844 22.691406 -16.042969 18.871094 -17.582031 L 15.003906 -19.117188 C 12.261719 -20.199219 10.308594 -20.863281 10.308594 -22.570312 C 10.308594 -24.230469 11.71875 -25.144531 14.007812 -25.144531 C 16.417969 -25.144531 18.328125 -24.3125 20.367188 -22.777344 L 24.066406 -27.429688 C 21.363281 -30.132812 17.582031 -31.503906 14.007812 -31.503906 C 7.441406 -31.503906 2.785156 -27.347656 2.785156 -22.152344 C 2.785156 -17.664062 5.820312 -14.960938 9.0625 -13.675781 L 13.007812 -12.011719 C 15.667969 -10.890625 17.375 -10.308594 17.375 -8.519531 C 17.375 -6.859375 16.085938 -5.820312 13.339844 -5.820312 C 10.890625 -5.820312 8.023438 -7.105469 5.820312 -8.976562 L 1.621094 -3.867188 C 4.820312 -0.914062 9.144531 0.582031 13.175781 0.582031 Z M 13.175781 0.582031 "/></g></g></g><path stroke-linecap="butt" transform="matrix(0.000000000000039757, 9.797102, -9.749999, 0.000000000000039566, 141.222343, 99.239115)" fill="none" stroke-linejoin="miter" d="M -0.0000851102 -0.000032105 L 0.996303 -0.000032105 " stroke="#004aad" stroke-width="1" stroke-opacity="1" stroke-miterlimit="4"/><path stroke-linecap="butt" transform="matrix(-9.632793, 2.581099, -2.523485, -9.417776, 144.355454, 104.091144)" fill="none" stroke-linejoin="miter" d="M -0.0000351622 0.000128465 L 1.053103 0.0000758724 " stroke="#004aad" stroke-width="1" stroke-opacity="1" stroke-miterlimit="4"/><g clip-path="url(#fa1745d911)"><path fill="#004aad" d="M 187.539062 431.066406 C 94.101562 431.066406 18.414062 354.855469 18.414062 261.941406 C 18.414062 169.027344 94.101562 92.816406 187.539062 92.816406 C 280.976562 92.816406 356.664062 168.503906 356.664062 261.941406 C 356.664062 355.375 280.453125 431.066406 187.539062 431.066406 Z M 187.539062 103.253906 C 99.84375 103.253906 28.855469 174.246094 28.855469 261.941406 C 28.855469 349.636719 99.84375 420.625 187.539062 420.625 C 275.234375 420.625 346.222656 349.636719 346.222656 261.941406 C 346.222656 174.246094 274.710938 103.253906 187.539062 103.253906 Z M 187.539062 103.253906 " fill-opacity="1" fill-rule="nonzero"/></g><path stroke-linecap="butt" transform="matrix(0.000000000000039757, 9.797102, -9.749999, 0.000000000000039566, 233.765951, 99.387627)" fill="none" stroke-linejoin="miter" d="M -0.0000927135 0.0000334102 L 0.996296 0.0000334102 " stroke="#004aad" stroke-width="1" stroke-opacity="1" stroke-miterlimit="4"/></svg>