<svg xmlns="http://www.w3.org/2000/svg" xmlns:xlink="http://www.w3.org/1999/xlink" width="500" zoomAndPan="magnify" viewBox="0 0 375 374.999991" height="500" preserveAspectRatio="xMidYMid meet" version="1.0"><defs><g/><clipPath id="bf97581dd1"><path d="M 27.3125 115.371094 L 145.0625 115.371094 L 145.0625 295.371094 L 27.3125 295.371094 Z M 27.3125 115.371094 " clip-rule="nonzero"/></clipPath><clipPath id="c55989c7dd"><path d="M 73.992188 171.109375 L 296.742188 171.109375 L 296.742188 295.609375 L 73.992188 295.609375 Z M 73.992188 171.109375 " clip-rule="nonzero"/></clipPath><clipPath id="5c45693d5a"><path d="M 66.804688 171.109375 L 303.804688 171.109375 L 303.804688 296.359375 L 66.804688 296.359375 Z M 66.804688 171.109375 " clip-rule="nonzero"/></clipPath><clipPath id="48f0f6eb60"><path d="M 162 287 L 245 287 L 245 296.359375 L 162 296.359375 Z M 162 287 " clip-rule="nonzero"/></clipPath><clipPath id="761a68fe75"><path d="M 154 177 L 303.804688 177 L 303.804688 296.359375 L 154 296.359375 Z M 154 177 " clip-rule="nonzero"/></clipPath><clipPath id="6a55d791eb"><path d="M 230.589844 115.890625 L 347.5625 115.890625 L 347.5625 295.890625 L 230.589844 295.890625 Z M 230.589844 115.890625 " clip-rule="nonzero"/></clipPath><clipPath id="6db872c5a0"><path d="M 235.976562 50.261719 L 248.726562 50.261719 L 248.726562 63.011719 L 235.976562 63.011719 Z M 235.976562 50.261719 " clip-rule="nonzero"/></clipPath><clipPath id="48ab85d535"><path d="M 126.839844 50.199219 L 139.589844 50.199219 L 139.589844 62.949219 L 126.839844 62.949219 Z M 126.839844 50.199219 " clip-rule="nonzero"/></clipPath></defs><g clip-path="url(#bf97581dd1)"><path fill="#004aad" d="M 187.4375 435.621094 C 98.972656 435.621094 27.3125 363.464844 27.3125 275.496094 C 27.3125 187.527344 98.972656 115.371094 187.4375 115.371094 C 275.902344 115.371094 347.5625 187.03125 347.5625 275.496094 C 347.5625 363.960938 275.410156 435.621094 187.4375 435.621094 Z M 187.4375 125.257812 C 104.410156 125.257812 37.199219 192.46875 37.199219 275.496094 C 37.199219 358.523438 104.410156 425.738281 187.4375 425.738281 C 270.464844 425.738281 337.679688 358.523438 337.679688 275.496094 C 337.679688 192.46875 269.972656 125.257812 187.4375 125.257812 Z M 187.4375 125.257812 " fill-opacity="1" fill-rule="nonzero"/></g><path stroke-linecap="butt" transform="matrix(9.01391, 0, 0, 8.52759, 126.840699, 102.070224)" fill="none" stroke-linejoin="miter" d="M -0.0000949223 0.0000103198 L 13.479939 0.0000103198 " stroke="#004aad" stroke-width="1" stroke-opacity="1" stroke-miterlimit="4"/><path stroke-linecap="butt" transform="matrix(0.000000000000000547, -8.92659, 8.52759, 0.000000000000000522, 131.102105, 102.156454)" fill="none" stroke-linejoin="miter" d="M 0.0000228633 -0.0000636746 L 4.789961 -0.0000636746 " stroke="#004aad" stroke-width="1" stroke-opacity="1" stroke-miterlimit="4"/><path stroke-linecap="butt" transform="matrix(0.000000000000000547, -8.92659, 8.52759, 0.000000000000000522, 243.711464, 102.156454)" fill="none" stroke-linejoin="miter" d="M 0.0000228633 -0.0000617052 L 4.789961 -0.0000617052 " stroke="#004aad" stroke-width="1" stroke-opacity="1" stroke-miterlimit="4"/><path stroke-linecap="butt" transform="matrix(9.030453, 0, 0, 8.999999, 135.549927, 54.697892)" fill="none" stroke-linejoin="miter" d="M 0.0000946188 0.000147371 L 11.544365 0.000147371 " stroke="#004aad" stroke-width="1" stroke-opacity="1" stroke-miterlimit="4"/><g clip-path="url(#c55989c7dd)"><path fill="#201e1d" d="M 165.117188 383.191406 C 163.167969 381.558594 161.753906 379.578125 162.160156 377.386719 C 163.265625 371.421875 167.242188 376.949219 167.242188 373.632812 C 167.242188 370.316406 165.25 369.65625 165.25 369.65625 C 168.125 368.992188 169.671875 365.898438 171.660156 364.351562 C 173.648438 362.804688 174.972656 356.175781 174.972656 356.175781 C 184.253906 356.398438 185.136719 343.363281 187.347656 340.492188 C 189.558594 337.617188 199.722656 334.746094 192.210938 331.210938 C 184.699219 327.675781 182.488281 328.558594 176.300781 326.125 C 170.113281 323.695312 165.472656 323.917969 165.472656 323.917969 C 166.359375 323.253906 167.464844 315.082031 159.507812 314.195312 C 151.554688 313.3125 145.367188 307.125 145.367188 307.125 C 137.632812 307.789062 132.554688 303.367188 132.554688 303.367188 C 126.585938 303.148438 123.9375 309.335938 123.9375 309.335938 C 120.179688 306.90625 117.085938 309.335938 117.085938 309.335938 C 114.214844 307.566406 113.992188 304.472656 113.992188 304.472656 C 113.992188 297.183594 112.003906 298.289062 112.003906 298.289062 C 106.480469 298.289062 107.585938 296.519531 107.585938 296.519531 C 107.363281 293.648438 109.132812 288.125 109.132812 288.125 C 105.816406 288.125 104.046875 290.773438 104.046875 290.773438 C 96.757812 300.054688 93.441406 280.390625 96.976562 275.53125 C 100.511719 270.667969 104.714844 273.984375 104.714844 273.984375 C 105.375 272.433594 113.109375 270.226562 113.328125 273.984375 C 113.550781 277.738281 117.085938 282.160156 117.085938 282.160156 C 117.75 277.90625 116.917969 269.839844 116.917969 269.839844 C 125.867188 264.371094 124.542969 260.890625 124.542969 260.890625 C 127.359375 250.121094 135.148438 251.445312 135.148438 251.445312 C 133.988281 246.636719 143.101562 244.484375 143.101562 244.484375 C 141.164062 248.792969 149.398438 244.320312 149.398438 244.320312 C 151.882812 242 148.40625 242.5 148.40625 242.5 C 143.433594 243.492188 145.421875 237.359375 145.421875 237.359375 C 140.199219 236.957031 137.683594 239.476562 136.910156 240.460938 C 140.488281 235.363281 144.429688 234.875 144.429688 234.875 C 153.339844 235.367188 155.5 234.292969 156.027344 233.714844 C 154.730469 236.167969 151.679688 239.355469 158.015625 239.515625 C 164.644531 239.683594 165.804688 236.863281 161.664062 236.367188 C 157.519531 235.867188 158.679688 234.042969 158.679688 234.042969 C 162.988281 227.253906 153.378906 224.433594 153.542969 223.9375 C 153.707031 223.4375 153.378906 213.332031 151.554688 216.3125 C 149.730469 219.296875 145.921875 219.296875 145.921875 219.296875 C 145.921875 219.296875 145.421875 213.164062 139.457031 212.667969 C 133.492188 212.171875 134.484375 213.992188 134.484375 217.804688 C 134.484375 221.617188 138.296875 221.285156 132.992188 223.9375 C 127.691406 226.585938 128.355469 229.242188 127.523438 232.222656 C 126.695312 235.207031 125.535156 232.71875 125.535156 232.71875 C 125.867188 223.4375 124.046875 224.433594 124.046875 224.433594 C 113.9375 221.285156 117.914062 217.804688 123.050781 212.171875 C 128.1875 206.539062 133.160156 209.355469 133.160156 209.355469 C 137.964844 210.015625 131.835938 205.871094 133.160156 205.871094 C 134.484375 205.871094 137.964844 202.890625 140.121094 200.734375 C 142.273438 198.582031 139.457031 198.085938 135.976562 200.238281 C 132.496094 202.394531 135.480469 194.773438 135.480469 194.773438 C 133.820312 194.273438 133.328125 200.074219 124.875 201.566406 C 123.605469 201.789062 122.582031 201.878906 121.75 201.878906 C 139.253906 188.03125 161.359375 179.753906 185.359375 179.753906 C 206.480469 179.753906 226.132812 186.167969 242.476562 197.140625 C 242.421875 197.160156 242.363281 197.179688 242.308594 197.203125 C 240.042969 198.195312 240.929688 199.300781 240.929688 199.300781 C 242.035156 203.167969 243.46875 209.796875 241.148438 211.453125 C 238.832031 213.109375 240.046875 214.546875 240.046875 214.546875 C 246.230469 226.921875 244.683594 214.546875 248.554688 218.964844 C 252.417969 223.382812 248.769531 225.152344 252.859375 225.261719 C 256.949219 225.375 258.496094 218.855469 254.960938 216.867188 C 251.425781 214.878906 250.539062 206.921875 250.539062 206.921875 C 252.308594 206.042969 252.527344 207.476562 252.527344 207.476562 C 251.976562 208.691406 254.296875 214.878906 256.398438 215.652344 C 258.496094 216.425781 259.269531 216.976562 260.039062 220.625 C 260.8125 224.269531 261.699219 223.824219 261.699219 223.824219 C 262.914062 228.136719 257.277344 226.371094 251.3125 227.695312 C 245.351562 229.019531 247.007812 232.554688 247.007812 232.554688 L 245.015625 232.554688 L 243.910156 235.316406 C 233.96875 240.398438 241.921875 241.0625 241.921875 241.0625 C 241.921875 241.0625 246.339844 247.6875 240.96875 247.910156 C 235.597656 248.132812 234.191406 251.222656 233.746094 255.425781 C 233.304688 259.625 239.714844 260.503906 239.714844 260.503906 L 240.96875 262.933594 C 240.96875 262.933594 235.296875 267.351562 233.96875 272.21875 C 232.644531 277.078125 225.574219 283.042969 224.6875 284.367188 C 223.804688 285.691406 226.898438 292.542969 224.027344 296.519531 C 221.15625 300.496094 224.027344 304.472656 224.027344 304.472656 C 227.121094 304.695312 231.757812 319.71875 237.503906 316.847656 C 237.886719 316.65625 238.265625 316.476562 238.636719 316.316406 C 243.792969 314.03125 247.445312 314.417969 247.445312 314.417969 C 254.515625 311.324219 255.179688 317.070312 255.179688 317.070312 C 259.820312 315.523438 259.160156 320.164062 259.160156 320.164062 C 253.414062 326.570312 258.714844 326.125 256.726562 334.964844 C 254.738281 343.804688 248.992188 344.027344 248.554688 350.875 C 248.113281 357.722656 240.15625 367.226562 240.15625 367.226562 C 240.15625 367.226562 240.566406 368.085938 242.140625 368.035156 C 225.863281 378.871094 206.339844 385.199219 185.359375 385.199219 C 178.433594 385.199219 171.664062 384.503906 165.117188 383.191406 Z M 82.636719 282.476562 C 82.636719 279.671875 82.753906 276.894531 82.976562 274.144531 C 85.628906 280.738281 89.816406 284.339844 89.6875 286.800781 C 89.46875 290.996094 88.582031 293.207031 96.757812 296.519531 C 104.933594 299.832031 109.132812 304.917969 110.902344 306.683594 C 112.664062 308.453125 116.421875 313.3125 118.851562 311.546875 C 121.285156 309.773438 127.25 316.847656 124.15625 319.71875 C 121.0625 322.59375 122.609375 327.011719 122.609375 327.011719 C 122.609375 327.011719 127.46875 343.582031 138.074219 346.453125 C 148.683594 349.328125 146.914062 353.085938 146.914062 353.085938 C 146.667969 368.71875 154.796875 377.667969 162.117188 382.542969 C 116.636719 371.984375 82.636719 331.128906 82.636719 282.476562 Z M 251.53125 249.679688 C 251.3125 247.355469 255.179688 248.351562 255.179688 248.351562 C 255.953125 245.808594 258.164062 246.804688 258.164062 246.804688 C 258.273438 248.019531 261.808594 251.667969 264.679688 252.769531 C 267.554688 253.875 268.652344 255.683594 266.117188 256.914062 C 263.582031 258.140625 265.785156 259.066406 265.785156 259.066406 C 267.332031 260.285156 268.878906 256.527344 268.769531 254.207031 C 268.65625 251.890625 267.554688 251.445312 265.675781 250.121094 C 263.796875 248.792969 261.253906 244.597656 261.253906 244.597656 C 270.867188 249.347656 271.640625 256.195312 273.078125 258.183594 C 274.511719 260.175781 274.074219 262.824219 275.507812 259.621094 C 276.941406 256.417969 271.308594 255.3125 275.398438 252.769531 C 279.484375 250.230469 277.9375 242.9375 277.9375 242.9375 C 279.699219 245.871094 280.757812 245.691406 281.167969 245.433594 C 281.8125 247.097656 282.417969 248.785156 282.976562 250.492188 C 282.480469 250.164062 282.023438 249.953125 281.695312 250.121094 C 280.808594 250.5625 282.136719 251.667969 279.488281 252.21875 C 276.832031 252.769531 278.269531 255.863281 278.269531 255.863281 C 279.265625 261.722656 285.339844 261.941406 285.339844 261.941406 L 285.339844 270.226562 C 280.148438 270.335938 275.507812 266.914062 275.507812 266.914062 C 272.414062 266.03125 272.855469 270.886719 272.855469 270.886719 C 264.019531 262.273438 261.476562 271.664062 262.472656 263.164062 C 263.464844 254.671875 250.320312 262.933594 245.457031 263.15625 C 240.597656 263.378906 242.917969 259.953125 242.917969 259.953125 C 248.441406 260.835938 248.332031 251.335938 248.886719 251.996094 C 249.4375 252.660156 251.753906 251.996094 251.53125 249.679688 Z M 185.359375 171.09375 C 123.945312 171.09375 73.976562 221.0625 73.976562 282.476562 C 73.976562 343.894531 123.945312 393.859375 185.359375 393.859375 C 246.773438 393.859375 296.738281 343.894531 296.738281 282.476562 C 296.738281 221.0625 246.773438 171.09375 185.359375 171.09375 " fill-opacity="1" fill-rule="nonzero"/></g><path fill="#201e1d" d="M 112.226562 286.800781 C 112.226562 286.800781 115.28125 286.355469 120.160156 289.894531 C 125.039062 293.429688 126.808594 289.894531 126.808594 289.894531 C 126.808594 289.894531 115.980469 283.132812 112.226562 286.800781 " fill-opacity="1" fill-rule="nonzero"/><path fill="#201e1d" d="M 128.578125 292.210938 C 128.578125 292.210938 130.121094 294.53125 132.992188 293.980469 C 135.867188 293.429688 137.300781 293.484375 138.847656 294.0625 C 138.847656 294.0625 131.445312 289.5625 128.578125 292.210938 " fill-opacity="1" fill-rule="nonzero"/><path fill="#201e1d" d="M 234.078125 225.097656 C 234.078125 226.835938 236.8125 226.753906 236.070312 230.234375 C 235.320312 233.714844 236.355469 235.273438 237.3125 235.121094 C 237.3125 235.121094 242.53125 234.460938 243.527344 232.96875 C 244.519531 231.476562 245.84375 229.902344 241.535156 228.742188 C 237.226562 227.582031 237.0625 221.617188 236.234375 220.707031 C 235.402344 219.796875 232.835938 220.621094 233.167969 218.800781 C 233.5 216.976562 228.695312 219.296875 230.597656 221.285156 C 232.503906 223.273438 234.078125 223.355469 234.078125 225.097656 " fill-opacity="1" fill-rule="nonzero"/><path fill="#201e1d" d="M 230.152344 232.96875 C 230.847656 232.554688 233.414062 232.222656 233.585938 229.324219 C 233.746094 226.421875 232.554688 225.347656 231.867188 225.347656 C 231.179688 225.347656 228.726562 225.347656 229.4375 229.160156 C 230.152344 232.96875 230.152344 232.96875 230.152344 232.96875 " fill-opacity="1" fill-rule="nonzero"/><g clip-path="url(#5c45693d5a)"><path fill="#004aad" d="M 303.820312 289.601562 C 303.820312 289.878906 303.820312 290.1875 303.800781 290.472656 C 303.765625 296.3125 303.308594 302.050781 302.429688 307.664062 C 298.304688 334.773438 284.996094 358.84375 265.777344 376.601562 L 265.757812 376.601562 C 244.613281 396.164062 216.34375 408.121094 185.296875 408.121094 C 170.105469 408.121094 155.578125 405.273438 142.25 400.042969 C 140.601562 399.414062 138.960938 398.730469 137.34375 398.011719 C 114.796875 388.027344 95.972656 371.222656 83.441406 350.191406 C 77.152344 339.621094 72.433594 327.984375 69.660156 315.628906 C 67.777344 307.242188 66.789062 298.53125 66.789062 289.601562 C 66.789062 286.464844 66.90625 283.363281 67.171875 280.304688 C 69.167969 254.308594 79.570312 230.675781 95.65625 212.105469 C 101.847656 204.949219 108.882812 198.542969 116.605469 193.050781 L 116.625 193.03125 C 118.714844 191.554688 120.863281 190.105469 123.070312 188.757812 C 136.53125 180.429688 151.777344 174.703125 168.105469 172.328125 C 173.714844 171.507812 179.460938 171.09375 185.296875 171.09375 C 199.210938 171.09375 212.59375 173.503906 224.992188 177.917969 C 245.035156 185.03125 262.5625 197.386719 275.984375 213.316406 C 293.367188 233.933594 303.820312 260.546875 303.820312 289.601562 " fill-opacity="1" fill-rule="nonzero"/></g><g clip-path="url(#48f0f6eb60)"><path fill="#7ed957" d="M 201.128906 382.351562 C 201.128906 382.351562 194.675781 373.351562 195.394531 357.917969 C 196.109375 342.488281 194.675781 339.917969 184.644531 336.703125 C 174.613281 333.488281 164.574219 327.695312 163.140625 319.980469 C 161.710938 312.265625 170.308594 294.261719 170.308594 294.261719 C 170.308594 294.261719 181.78125 286.550781 191.8125 287.832031 C 201.84375 289.121094 219.046875 289.121094 226.929688 296.195312 C 234.816406 303.261719 239.828125 319.339844 243.410156 319.980469 C 246.996094 320.625 238.394531 348.273438 236.960938 352.777344 C 235.53125 357.273438 231.230469 375.28125 227.648438 382.351562 C 224.066406 389.425781 220.480469 395.855469 217.613281 395.855469 C 214.746094 395.855469 201.84375 397.144531 201.128906 382.351562 " fill-opacity="1" fill-rule="nonzero"/></g><g clip-path="url(#761a68fe75)"><path fill="#7ed957" d="M 303.820312 289.601562 C 303.820312 289.878906 303.820312 290.1875 303.800781 290.472656 C 303.765625 296.3125 303.308594 302.050781 302.429688 307.664062 C 297.109375 299.847656 291.367188 288.117188 288.441406 286.0625 C 283.933594 282.886719 267.414062 280.988281 273.417969 289.238281 C 279.429688 297.511719 281.972656 297.511719 281.972656 297.511719 C 281.972656 297.511719 270.414062 320.78125 262.164062 318.523438 C 253.894531 316.277344 237.371094 286.0625 237.371094 286.0625 C 227.617188 278.382812 246.382812 272.71875 246.382812 272.71875 C 246.382812 272.71875 252.394531 267.46875 243.378906 261.457031 C 234.367188 255.453125 227.617188 268.210938 221.609375 266.707031 C 215.605469 265.207031 214.097656 271.210938 212.21875 277.222656 C 210.335938 283.226562 204.859375 286.824219 203.585938 277.222656 C 202.292969 267.617188 188.5625 273.480469 184.0625 273.480469 C 179.554688 273.480469 170.542969 289.238281 162.269531 289.238281 C 154.019531 289.238281 154.019531 277.980469 155.523438 272.71875 C 157.023438 267.46875 169.78125 262.199219 181.796875 261.457031 C 193.8125 260.703125 182.558594 250.183594 186.304688 248.148438 C 190.066406 246.097656 201.328125 249.441406 212.21875 253.949219 C 223.09375 258.457031 234.367188 247.941406 244.140625 248.148438 C 253.894531 248.359375 223.113281 240.433594 232.867188 232.917969 C 242.640625 225.410156 221.609375 218.644531 222.351562 210.390625 C 223.113281 202.121094 216.34375 192.367188 216.34375 183.355469 C 216.34375 180.484375 219.539062 178.617188 224.992188 177.917969 C 245.035156 185.03125 262.5625 197.386719 275.984375 213.316406 C 293.367188 233.933594 303.820312 260.546875 303.820312 289.601562 " fill-opacity="1" fill-rule="nonzero"/></g><path fill="#7ed957" d="M 136.046875 249.535156 C 136.046875 249.535156 140.398438 254.679688 143.753906 249.535156 C 147.113281 244.390625 147.589844 240.289062 145.488281 239.917969 C 143.382812 239.542969 130.882812 247.394531 136.046875 249.535156 " fill-opacity="1" fill-rule="nonzero"/><path fill="#7ed957" d="M 110.683594 249.535156 C 110.683594 249.535156 119.632812 247.25 121.621094 242.773438 C 123.613281 238.296875 135.050781 240.289062 138.035156 235.808594 C 141.019531 231.332031 148.742188 229.738281 150.605469 225.5625 C 152.457031 221.390625 154.476562 214.925781 146.753906 214.421875 C 139.03125 213.929688 131.417969 210.453125 131.496094 214.421875 C 131.570312 218.40625 129.582031 217.410156 122.621094 219.894531 C 115.660156 222.382812 108.199219 218.796875 108.199219 225.5625 C 108.199219 232.332031 110.191406 239.902344 110.191406 239.902344 C 110.191406 239.902344 106.210938 245.359375 110.683594 249.535156 " fill-opacity="1" fill-rule="nonzero"/><path fill="#7ed957" d="M 168.105469 172.328125 C 168.105469 172.328125 154.78125 190.125 152.308594 190.601562 C 149.820312 191.074219 142.195312 196.300781 140.785156 201.535156 C 139.363281 206.765625 129.378906 210.089844 121.777344 206.765625 C 114.171875 203.433594 112.421875 199.765625 116.605469 193.050781 L 116.625 193.03125 C 118.714844 191.554688 120.863281 190.105469 123.070312 188.757812 C 136.53125 180.429688 151.777344 174.703125 168.105469 172.328125 " fill-opacity="1" fill-rule="nonzero"/><path fill="#7ed957" d="M 93.410156 242.257812 C 92.148438 246.058594 92.457031 250.492188 88.351562 251.816406 C 84.222656 253.152344 85.804688 258.09375 82.953125 264.425781 C 80.386719 270.132812 69.378906 278.648438 67.171875 280.304688 C 69.167969 254.308594 79.570312 230.675781 95.65625 212.105469 C 97.324219 217.179688 96.675781 225.5625 98.160156 228.300781 C 100.386719 232.425781 94.679688 238.453125 93.410156 242.257812 " fill-opacity="1" fill-rule="nonzero"/><g clip-path="url(#6a55d791eb)"><path fill="#004aad" d="M 187.4375 436.140625 C 98.972656 436.140625 27.3125 363.984375 27.3125 276.015625 C 27.3125 188.042969 98.972656 115.890625 187.4375 115.890625 C 275.902344 115.890625 347.5625 187.550781 347.5625 276.015625 C 347.5625 364.476562 275.410156 436.140625 187.4375 436.140625 Z M 187.4375 125.773438 C 104.410156 125.773438 37.199219 192.988281 37.199219 276.015625 C 37.199219 359.042969 104.410156 426.253906 187.4375 426.253906 C 270.464844 426.253906 337.679688 359.042969 337.679688 276.015625 C 337.679688 192.988281 269.972656 125.773438 187.4375 125.773438 Z M 187.4375 125.773438 " fill-opacity="1" fill-rule="nonzero"/></g><path stroke-linecap="butt" transform="matrix(0.000000000000000596, 9.735278, -9.749999, 0.000000000000000597, 150.077426, 97.777297)" fill="none" stroke-linejoin="miter" d="M 0.00000482479 -0.0000717082 L 2.389029 -0.0000717082 " stroke="#004aad" stroke-width="1" stroke-opacity="1" stroke-miterlimit="4"/><path stroke-linecap="butt" transform="matrix(0.000000000000039757, 9.797102, -9.749999, 0.000000000000039566, 150.07577, 119.216769)" fill="none" stroke-linejoin="miter" d="M -0.000196509 0.000159087 L 0.996192 0.000159087 " stroke="#004aad" stroke-width="1" stroke-opacity="1" stroke-miterlimit="4"/><path stroke-linecap="butt" transform="matrix(-9.632793, 2.581099, -2.523485, -9.417776, 153.208895, 124.068801)" fill="none" stroke-linejoin="miter" d="M 0.000219779 -0.000100297 L 1.053358 -0.00015289 " stroke="#004aad" stroke-width="1" stroke-opacity="1" stroke-miterlimit="4"/><path stroke-linecap="butt" transform="matrix(0.000000000000000604, 9.858736, -9.749999, 0.000000000000000597, 225.714378, 102.161638)" fill="none" stroke-linejoin="miter" d="M -0.000150307 -0.0000477202 L 2.586784 -0.0000477202 " stroke="#004aad" stroke-width="1" stroke-opacity="1" stroke-miterlimit="4"/><path stroke-linecap="butt" transform="matrix(0.000000000000039757, 9.797102, -9.749999, 0.000000000000039566, 225.709134, 122.677946)" fill="none" stroke-linejoin="miter" d="M 0.000177803 -0.000184925 L 0.996566 -0.000184925 " stroke="#004aad" stroke-width="1" stroke-opacity="1" stroke-miterlimit="4"/><g fill="#004aad" fill-opacity="1"><g transform="translate(21.095745, 343.123249)"><g><path d="M 3.386719 0 L 10.433594 0 L 10.433594 -9.726562 L 13.859375 -9.726562 C 20.042969 -9.726562 25.4375 -12.796875 25.4375 -19.765625 C 25.4375 -27.011719 20.121094 -29.296875 13.664062 -29.296875 L 3.386719 -29.296875 Z M 10.433594 -15.277344 L 10.433594 -23.742188 L 13.308594 -23.742188 C 16.695312 -23.742188 18.585938 -22.71875 18.585938 -19.765625 C 18.585938 -16.890625 16.929688 -15.277344 13.503906 -15.277344 Z M 10.433594 -15.277344 "/></g></g></g><g fill="#004aad" fill-opacity="1"><g transform="translate(49.60348, 343.123249)"><g><path d="M 3.386719 0 L 21.8125 0 L 21.8125 -5.90625 L 10.433594 -5.90625 L 10.433594 -29.296875 L 3.386719 -29.296875 Z M 3.386719 0 "/></g></g></g><g fill="#004aad" fill-opacity="1"><g transform="translate(74.56746, 343.123249)"><g><path d="M 9.882812 -12.167969 L 10.511719 -14.648438 C 11.261719 -17.5625 12.046875 -20.988281 12.757812 -24.058594 L 12.914062 -24.058594 C 13.703125 -21.066406 14.449219 -17.5625 15.238281 -14.648438 L 15.867188 -12.167969 Z M 18.898438 0 L 26.300781 0 L 17.207031 -29.296875 L 8.78125 -29.296875 L -0.316406 0 L 6.851562 0 L 8.542969 -6.734375 L 17.207031 -6.734375 Z M 18.898438 0 "/></g></g></g><g fill="#004aad" fill-opacity="1"><g transform="translate(102.012072, 343.123249)"><g><path d="M 12.480469 0.550781 C 19.570312 0.550781 23.664062 -3.742188 23.664062 -8.625 C 23.664062 -12.757812 21.5 -15.199219 17.875 -16.65625 L 14.214844 -18.113281 C 11.617188 -19.136719 9.765625 -19.765625 9.765625 -21.378906 C 9.765625 -22.957031 11.105469 -23.820312 13.269531 -23.820312 C 15.554688 -23.820312 17.363281 -23.035156 19.292969 -21.578125 L 22.796875 -25.988281 C 20.238281 -28.546875 16.65625 -29.847656 13.269531 -29.847656 C 7.046875 -29.847656 2.636719 -25.910156 2.636719 -20.988281 C 2.636719 -16.734375 5.511719 -14.175781 8.582031 -12.953125 L 12.324219 -11.378906 C 14.84375 -10.316406 16.457031 -9.765625 16.457031 -8.070312 C 16.457031 -6.496094 15.238281 -5.511719 12.640625 -5.511719 C 10.316406 -5.511719 7.597656 -6.734375 5.511719 -8.503906 L 1.535156 -3.660156 C 4.566406 -0.867188 8.664062 0.550781 12.480469 0.550781 Z M 12.480469 0.550781 "/></g></g></g><g fill="#004aad" fill-opacity="1"><g transform="translate(128.629804, 343.123249)"><g><path d="M 9.054688 0 L 16.105469 0 L 16.105469 -23.46875 L 24.058594 -23.46875 L 24.058594 -29.296875 L 1.140625 -29.296875 L 1.140625 -23.46875 L 9.054688 -23.46875 Z M 9.054688 0 "/></g></g></g><g fill="#004aad" fill-opacity="1"><g transform="translate(155.286914, 343.123249)"><g><path d="M 3.386719 0 L 10.433594 0 L 10.433594 -29.296875 L 3.386719 -29.296875 Z M 3.386719 0 "/></g></g></g><g fill="#004aad" fill-opacity="1"><g transform="translate(170.525271, 343.123249)"><g><path d="M 3.386719 0 L 10.433594 0 L 10.433594 -11.183594 L 20.4375 -11.183594 L 20.4375 -17.050781 L 10.433594 -17.050781 L 10.433594 -23.46875 L 22.089844 -23.46875 L 22.089844 -29.296875 L 3.386719 -29.296875 Z M 3.386719 0 "/></g></g></g><g fill="#004aad" fill-opacity="1"><g transform="translate(195.764882, 343.123249)"><g><path d="M 3.386719 0 L 10.433594 0 L 10.433594 -29.296875 L 3.386719 -29.296875 Z M 3.386719 0 "/></g></g></g><g fill="#004aad" fill-opacity="1"><g transform="translate(211.003238, 343.123249)"><g><path d="M 15.789062 0.550781 C 19.609375 0.550781 22.875 -0.90625 25.359375 -3.78125 L 21.65625 -8.191406 C 20.277344 -6.695312 18.386719 -5.511719 16.066406 -5.511719 C 11.929688 -5.511719 9.253906 -8.898438 9.253906 -14.726562 C 9.253906 -20.4375 12.363281 -23.820312 16.144531 -23.820312 C 18.230469 -23.820312 19.765625 -22.875 21.222656 -21.539062 L 24.925781 -26.027344 C 22.917969 -28.074219 19.84375 -29.847656 16.027344 -29.847656 C 8.582031 -29.847656 2.046875 -24.253906 2.046875 -14.488281 C 2.046875 -4.566406 8.347656 0.550781 15.789062 0.550781 Z M 15.789062 0.550781 "/></g></g></g><g fill="#004aad" fill-opacity="1"><g transform="translate(238.72347, 343.123249)"><g><path d="M 9.882812 -12.167969 L 10.511719 -14.648438 C 11.261719 -17.5625 12.046875 -20.988281 12.757812 -24.058594 L 12.914062 -24.058594 C 13.703125 -21.066406 14.449219 -17.5625 15.238281 -14.648438 L 15.867188 -12.167969 Z M 18.898438 0 L 26.300781 0 L 17.207031 -29.296875 L 8.78125 -29.296875 L -0.316406 0 L 6.851562 0 L 8.542969 -6.734375 L 17.207031 -6.734375 Z M 18.898438 0 "/></g></g></g><g fill="#004aad" fill-opacity="1"><g transform="translate(266.168072, 343.123249)"><g><path d="M 3.386719 0 L 12.207031 0 C 20.75 0 26.65625 -4.605469 26.65625 -14.804688 C 26.65625 -25.003906 20.75 -29.296875 11.8125 -29.296875 L 3.386719 -29.296875 Z M 10.433594 -5.671875 L 10.433594 -23.703125 L 11.378906 -23.703125 C 16.105469 -23.703125 19.453125 -21.773438 19.453125 -14.804688 C 19.453125 -7.835938 16.105469 -5.671875 11.378906 -5.671875 Z M 10.433594 -5.671875 "/></g></g></g><g fill="#004aad" fill-opacity="1"><g transform="translate(296.329569, 343.123249)"><g><path d="M 15.472656 0.550781 C 23.46875 0.550781 28.902344 -5.199219 28.902344 -14.804688 C 28.902344 -24.375 23.46875 -29.847656 15.472656 -29.847656 C 7.480469 -29.847656 2.046875 -24.414062 2.046875 -14.804688 C 2.046875 -5.199219 7.480469 0.550781 15.472656 0.550781 Z M 15.472656 -5.511719 C 11.617188 -5.511719 9.253906 -9.09375 9.253906 -14.804688 C 9.253906 -20.476562 11.617188 -23.820312 15.472656 -23.820312 C 19.332031 -23.820312 21.734375 -20.476562 21.734375 -14.804688 C 21.734375 -9.09375 19.332031 -5.511719 15.472656 -5.511719 Z M 15.472656 -5.511719 "/></g></g></g><g fill="#004aad" fill-opacity="1"><g transform="translate(328.735435, 343.123249)"><g><path d="M 12.480469 0.550781 C 19.570312 0.550781 23.664062 -3.742188 23.664062 -8.625 C 23.664062 -12.757812 21.5 -15.199219 17.875 -16.65625 L 14.214844 -18.113281 C 11.617188 -19.136719 9.765625 -19.765625 9.765625 -21.378906 C 9.765625 -22.957031 11.105469 -23.820312 13.269531 -23.820312 C 15.554688 -23.820312 17.363281 -23.035156 19.292969 -21.578125 L 22.796875 -25.988281 C 20.238281 -28.546875 16.65625 -29.847656 13.269531 -29.847656 C 7.046875 -29.847656 2.636719 -25.910156 2.636719 -20.988281 C 2.636719 -16.734375 5.511719 -14.175781 8.582031 -12.953125 L 12.324219 -11.378906 C 14.84375 -10.316406 16.457031 -9.765625 16.457031 -8.070312 C 16.457031 -6.496094 15.238281 -5.511719 12.640625 -5.511719 C 10.316406 -5.511719 7.597656 -6.734375 5.511719 -8.503906 L 1.535156 -3.660156 C 4.566406 -0.867188 8.664062 0.550781 12.480469 0.550781 Z M 12.480469 0.550781 "/></g></g></g><g clip-path="url(#6db872c5a0)"><path fill="#004aad" d="M 135.667969 331.273438 C 47.203125 331.273438 -24.457031 259.121094 -24.457031 171.148438 C -24.457031 83.179688 47.203125 11.023438 135.667969 11.023438 C 224.128906 11.023438 295.792969 82.6875 295.792969 171.148438 C 295.792969 259.613281 223.636719 331.273438 135.667969 331.273438 Z M 135.667969 20.910156 C 52.636719 20.910156 -14.574219 88.121094 -14.574219 171.148438 C -14.574219 254.179688 52.636719 321.390625 135.667969 321.390625 C 218.695312 321.390625 285.90625 254.179688 285.90625 171.148438 C 285.90625 88.121094 218.199219 20.910156 135.667969 20.910156 Z M 135.667969 20.910156 " fill-opacity="1" fill-rule="nonzero"/></g><g clip-path="url(#48ab85d535)"><path fill="#004aad" d="M 239.65625 331.210938 C 328.117188 331.210938 399.78125 259.058594 399.78125 171.089844 C 399.78125 83.117188 328.117188 10.964844 239.65625 10.964844 C 151.191406 10.964844 79.53125 82.625 79.53125 171.089844 C 79.53125 259.550781 151.683594 331.210938 239.65625 331.210938 Z M 239.65625 20.847656 C 322.683594 20.847656 389.894531 88.058594 389.894531 171.089844 C 389.894531 254.117188 322.683594 321.328125 239.65625 321.328125 C 156.625 321.328125 89.414062 254.117188 89.414062 171.089844 C 89.414062 88.058594 157.121094 20.847656 239.65625 20.847656 Z M 239.65625 20.847656 " fill-opacity="1" fill-rule="nonzero"/></g></svg>