<svg xmlns="http://www.w3.org/2000/svg" xmlns:xlink="http://www.w3.org/1999/xlink" width="500" zoomAndPan="magnify" viewBox="0 0 375 374.999991" height="500" preserveAspectRatio="xMidYMid meet" version="1.0"><path fill="#004aad" d="M 187.5 0 C 184.429688 0 181.363281 0.0742188 178.300781 0.226562 C 175.234375 0.375 172.175781 0.601562 169.121094 0.902344 C 166.066406 1.203125 163.023438 1.578125 159.988281 2.03125 C 156.953125 2.480469 153.929688 3.003906 150.921875 3.601562 C 147.910156 4.203125 144.917969 4.875 141.941406 5.617188 C 138.964844 6.363281 136.007812 7.183594 133.070312 8.074219 C 130.136719 8.964844 127.222656 9.925781 124.332031 10.960938 C 121.445312 11.996094 118.582031 13.097656 115.746094 14.273438 C 112.910156 15.445312 110.105469 16.691406 107.332031 18.003906 C 104.558594 19.3125 101.820312 20.691406 99.113281 22.140625 C 96.40625 23.585938 93.738281 25.097656 91.105469 26.675781 C 88.472656 28.253906 85.882812 29.894531 83.332031 31.597656 C 80.777344 33.304688 78.269531 35.070312 75.804688 36.898438 C 73.339844 38.726562 70.921875 40.613281 68.550781 42.558594 C 66.179688 44.507812 63.855469 46.511719 61.582031 48.570312 C 59.308594 50.632812 57.085938 52.746094 54.917969 54.917969 C 52.746094 57.085938 50.632812 59.308594 48.570312 61.582031 C 46.511719 63.855469 44.507812 66.179688 42.558594 68.550781 C 40.613281 70.921875 38.726562 73.339844 36.898438 75.804688 C 35.070312 78.269531 33.304688 80.777344 31.597656 83.332031 C 29.894531 85.882812 28.253906 88.472656 26.675781 91.105469 C 25.097656 93.738281 23.585938 96.40625 22.140625 99.113281 C 20.691406 101.820312 19.3125 104.558594 18.003906 107.332031 C 16.691406 110.105469 15.445312 112.910156 14.273438 115.746094 C 13.097656 118.582031 11.996094 121.445312 10.960938 124.332031 C 9.925781 127.222656 8.964844 130.136719 8.074219 133.070312 C 7.183594 136.007812 6.363281 138.964844 5.617188 141.941406 C 4.875 144.917969 4.203125 147.910156 3.601562 150.921875 C 3.003906 153.929688 2.480469 156.953125 2.03125 159.988281 C 1.578125 163.023438 1.203125 166.066406 0.902344 169.121094 C 0.601562 172.175781 0.375 175.234375 0.226562 178.300781 C 0.0742188 181.363281 0 184.429688 0 187.5 C 0 190.570312 0.0742188 193.636719 0.226562 196.699219 C 0.375 199.765625 0.601562 202.824219 0.902344 205.878906 C 1.203125 208.933594 1.578125 211.976562 2.03125 215.011719 C 2.480469 218.046875 3.003906 221.070312 3.601562 224.078125 C 4.203125 227.089844 4.875 230.082031 5.617188 233.058594 C 6.363281 236.035156 7.183594 238.992188 8.074219 241.929688 C 8.964844 244.863281 9.925781 247.777344 10.960938 250.667969 C 11.996094 253.554688 13.097656 256.417969 14.273438 259.253906 C 15.445312 262.089844 16.691406 264.894531 18.003906 267.667969 C 19.3125 270.441406 20.691406 273.179688 22.140625 275.886719 C 23.585938 278.59375 25.097656 281.261719 26.675781 283.894531 C 28.253906 286.527344 29.894531 289.117188 31.597656 291.667969 C 33.304688 294.222656 35.070312 296.730469 36.898438 299.195312 C 38.726562 301.660156 40.613281 304.078125 42.558594 306.449219 C 44.507812 308.820312 46.511719 311.144531 48.570312 313.417969 C 50.632812 315.691406 52.746094 317.914062 54.917969 320.082031 C 57.085938 322.253906 59.308594 324.367188 61.582031 326.429688 C 63.855469 328.488281 66.179688 330.492188 68.550781 332.4375 C 70.921875 334.386719 73.339844 336.273438 75.804688 338.101562 C 78.269531 339.929688 80.777344 341.695312 83.332031 343.402344 C 85.882812 345.105469 88.472656 346.746094 91.105469 348.324219 C 93.738281 349.902344 96.40625 351.414062 99.113281 352.859375 C 101.820312 354.308594 104.558594 355.6875 107.332031 356.996094 C 110.105469 358.308594 112.910156 359.554688 115.746094 360.726562 C 118.582031 361.902344 121.445312 363.003906 124.332031 364.039062 C 127.222656 365.074219 130.136719 366.035156 133.070312 366.925781 C 136.007812 367.816406 138.964844 368.636719 141.941406 369.378906 C 144.917969 370.125 147.910156 370.796875 150.921875 371.398438 C 153.929688 371.996094 156.953125 372.519531 159.988281 372.96875 C 163.023438 373.421875 166.066406 373.796875 169.121094 374.097656 C 172.175781 374.398438 175.234375 374.625 178.300781 374.773438 C 181.363281 374.925781 184.429688 375 187.5 375 C 190.570312 375 193.636719 374.925781 196.699219 374.773438 C 199.765625 374.625 202.824219 374.398438 205.878906 374.097656 C 208.933594 373.796875 211.976562 373.421875 215.011719 372.96875 C 218.046875 372.519531 221.070312 371.996094 224.078125 371.398438 C 227.089844 370.796875 230.082031 370.125 233.058594 369.378906 C 236.035156 368.636719 238.992188 367.816406 241.929688 366.925781 C 244.863281 366.035156 247.777344 365.074219 250.667969 364.039062 C 253.554688 363.003906 256.417969 361.902344 259.253906 360.726562 C 262.089844 359.554688 264.894531 358.308594 267.667969 356.996094 C 270.441406 355.6875 273.179688 354.308594 275.886719 352.859375 C 278.59375 351.414062 281.261719 349.902344 283.894531 348.324219 C 286.527344 346.746094 289.117188 345.105469 291.667969 343.402344 C 294.222656 341.695312 296.730469 339.929688 299.195312 338.101562 C 301.660156 336.273438 304.078125 334.386719 306.449219 332.4375 C 308.820312 330.492188 311.144531 328.488281 313.417969 326.429688 C 315.691406 324.367188 317.914062 322.253906 320.082031 320.082031 C 322.253906 317.914062 324.367188 315.691406 326.429688 313.417969 C 328.488281 311.144531 330.492188 308.820312 332.4375 306.449219 C 334.386719 304.078125 336.273438 301.660156 338.101562 299.195312 C 339.929688 296.730469 341.695312 294.222656 343.402344 291.667969 C 345.105469 289.117188 346.746094 286.527344 348.324219 283.894531 C 349.902344 281.261719 351.414062 278.59375 352.859375 275.886719 C 354.308594 273.179688 355.6875 270.441406 356.996094 267.667969 C 358.308594 264.894531 359.554688 262.089844 360.726562 259.253906 C 361.902344 256.417969 363.003906 253.554688 364.039062 250.667969 C 365.074219 247.777344 366.035156 244.863281 366.925781 241.929688 C 367.816406 238.992188 368.636719 236.035156 369.378906 233.058594 C 370.125 230.082031 370.796875 227.089844 371.398438 224.078125 C 371.996094 221.070312 372.519531 218.046875 372.96875 215.011719 C 373.421875 211.976562 373.796875 208.933594 374.097656 205.878906 C 374.398438 202.824219 374.625 199.765625 374.773438 196.699219 C 374.925781 193.636719 375 190.570312 375 187.5 C 375 184.429688 374.925781 181.363281 374.773438 178.300781 C 374.625 175.234375 374.398438 172.175781 374.097656 169.121094 C 373.796875 166.066406 373.421875 163.023438 372.96875 159.988281 C 372.519531 156.953125 371.996094 153.929688 371.398438 150.921875 C 370.796875 147.910156 370.125 144.917969 369.378906 141.941406 C 368.636719 138.964844 367.816406 136.007812 366.925781 133.070312 C 366.035156 130.136719 365.074219 127.222656 364.039062 124.332031 C 363.003906 121.445312 361.902344 118.582031 360.726562 115.746094 C 359.554688 112.910156 358.308594 110.105469 356.996094 107.332031 C 355.6875 104.558594 354.308594 101.820312 352.859375 99.113281 C 351.414062 96.40625 349.902344 93.738281 348.324219 91.105469 C 346.746094 88.472656 345.105469 85.882812 343.402344 83.332031 C 341.695312 80.777344 339.929688 78.269531 338.101562 75.804688 C 336.273438 73.339844 334.386719 70.921875 332.4375 68.550781 C 330.492188 66.179688 328.488281 63.855469 326.429688 61.582031 C 324.367188 59.308594 322.253906 57.085938 320.082031 54.917969 C 317.914062 52.746094 315.691406 50.632812 313.417969 48.570312 C 311.144531 46.511719 308.820312 44.507812 306.449219 42.558594 C 304.078125 40.613281 301.660156 38.726562 299.195312 36.898438 C 296.730469 35.070312 294.222656 33.304688 291.667969 31.597656 C 289.117188 29.894531 286.527344 28.253906 283.894531 26.675781 C 281.261719 25.097656 278.59375 23.585938 275.886719 22.140625 C 273.179688 20.691406 270.441406 19.3125 267.667969 18.003906 C 264.894531 16.691406 262.089844 15.445312 259.253906 14.273438 C 256.417969 13.097656 253.554688 11.996094 250.667969 10.960938 C 247.777344 9.925781 244.863281 8.964844 241.929688 8.074219 C 238.992188 7.183594 236.035156 6.363281 233.058594 5.617188 C 230.082031 4.875 227.089844 4.203125 224.078125 3.601562 C 221.070312 3.003906 218.046875 2.480469 215.011719 2.03125 C 211.976562 1.578125 208.933594 1.203125 205.878906 0.902344 C 202.824219 0.601562 199.765625 0.375 196.699219 0.226562 C 193.636719 0.0742188 190.570312 0 187.5 0 Z M 160.714844 80.355469 C 160.714844 79.480469 160.757812 78.605469 160.84375 77.730469 C 160.929688 76.859375 161.058594 75.992188 161.230469 75.132812 C 161.398438 74.269531 161.613281 73.421875 161.867188 72.582031 C 162.121094 71.742188 162.417969 70.917969 162.753906 70.105469 C 163.089844 69.296875 163.464844 68.503906 163.878906 67.730469 C 164.289062 66.957031 164.742188 66.207031 165.226562 65.476562 C 165.714844 64.746094 166.238281 64.042969 166.792969 63.363281 C 167.351562 62.6875 167.9375 62.039062 168.558594 61.417969 C 169.179688 60.796875 169.828125 60.207031 170.507812 59.652344 C 171.183594 59.09375 171.890625 58.574219 172.617188 58.085938 C 173.347656 57.597656 174.101562 57.148438 174.875 56.734375 C 175.648438 56.320312 176.4375 55.945312 177.25 55.609375 C 178.058594 55.273438 178.886719 54.980469 179.722656 54.726562 C 180.5625 54.46875 181.414062 54.257812 182.273438 54.085938 C 183.136719 53.914062 184 53.785156 184.875 53.699219 C 185.746094 53.613281 186.621094 53.570312 187.5 53.570312 C 188.378906 53.570312 189.253906 53.613281 190.125 53.699219 C 191 53.785156 191.867188 53.914062 192.726562 54.085938 C 193.585938 54.257812 194.4375 54.46875 195.277344 54.726562 C 196.113281 54.980469 196.941406 55.273438 197.75 55.609375 C 198.5625 55.945312 199.351562 56.320312 200.125 56.734375 C 200.898438 57.148438 201.652344 57.597656 202.382812 58.085938 C 203.109375 58.574219 203.816406 59.09375 204.492188 59.652344 C 205.171875 60.207031 205.820312 60.796875 206.441406 61.417969 C 207.0625 62.035156 207.648438 62.6875 208.207031 63.363281 C 208.761719 64.042969 209.285156 64.746094 209.769531 65.476562 C 210.257812 66.207031 210.710938 66.957031 211.121094 67.730469 C 211.535156 68.503906 211.910156 69.296875 212.246094 70.105469 C 212.582031 70.917969 212.878906 71.742188 213.132812 72.582031 C 213.386719 73.421875 213.601562 74.269531 213.769531 75.132812 C 213.941406 75.992188 214.070312 76.859375 214.15625 77.730469 C 214.242188 78.605469 214.285156 79.480469 214.285156 80.355469 C 214.285156 81.234375 214.242188 82.109375 214.15625 82.984375 C 214.070312 83.855469 213.941406 84.722656 213.769531 85.582031 C 213.601562 86.441406 213.386719 87.292969 213.132812 88.132812 C 212.878906 88.972656 212.582031 89.796875 212.246094 90.609375 C 211.910156 91.417969 211.535156 92.210938 211.121094 92.984375 C 210.710938 93.757812 210.257812 94.507812 209.769531 95.238281 C 209.285156 95.96875 208.761719 96.671875 208.207031 97.351562 C 207.648438 98.027344 207.0625 98.675781 206.441406 99.296875 C 205.820312 99.917969 205.171875 100.507812 204.492188 101.0625 C 203.816406 101.621094 203.109375 102.140625 202.382812 102.628906 C 201.652344 103.117188 200.898438 103.566406 200.125 103.980469 C 199.351562 104.394531 198.5625 104.769531 197.75 105.105469 C 196.941406 105.441406 196.113281 105.734375 195.277344 105.988281 C 194.4375 106.242188 193.585938 106.457031 192.726562 106.628906 C 191.867188 106.800781 191 106.929688 190.125 107.015625 C 189.253906 107.101562 188.378906 107.144531 187.5 107.144531 C 186.621094 107.144531 185.746094 107.101562 184.875 107.015625 C 184 106.929688 183.136719 106.800781 182.273438 106.628906 C 181.414062 106.457031 180.5625 106.242188 179.722656 105.988281 C 178.886719 105.734375 178.058594 105.441406 177.25 105.105469 C 176.4375 104.769531 175.648438 104.394531 174.875 103.980469 C 174.101562 103.566406 173.347656 103.117188 172.617188 102.628906 C 171.890625 102.140625 171.183594 101.621094 170.507812 101.0625 C 169.828125 100.507812 169.179688 99.917969 168.558594 99.296875 C 167.9375 98.675781 167.351562 98.027344 166.792969 97.351562 C 166.238281 96.671875 165.714844 95.96875 165.226562 95.238281 C 164.742188 94.507812 164.289062 93.757812 163.878906 92.984375 C 163.464844 92.210938 163.089844 91.417969 162.753906 90.609375 C 162.417969 89.796875 162.121094 88.972656 161.867188 88.132812 C 161.613281 87.292969 161.398438 86.441406 161.230469 85.582031 C 161.058594 84.722656 160.929688 83.855469 160.84375 82.984375 C 160.757812 82.109375 160.714844 81.234375 160.714844 80.355469 Z M 241.070312 308.035156 C 241.070312 308.914062 240.984375 309.785156 240.8125 310.648438 C 240.640625 311.511719 240.386719 312.347656 240.050781 313.160156 C 239.714844 313.972656 239.304688 314.746094 238.8125 315.476562 C 238.324219 316.207031 237.769531 316.882812 237.148438 317.503906 C 236.527344 318.128906 235.851562 318.683594 235.121094 319.171875 C 234.386719 319.660156 233.617188 320.074219 232.804688 320.410156 C 231.992188 320.746094 231.152344 321 230.292969 321.171875 C 229.429688 321.34375 228.558594 321.429688 227.679688 321.429688 L 147.320312 321.429688 C 146.441406 321.429688 145.570312 321.34375 144.707031 321.171875 C 143.847656 321 143.007812 320.746094 142.195312 320.410156 C 141.382812 320.074219 140.613281 319.660156 139.878906 319.171875 C 139.148438 318.683594 138.472656 318.128906 137.851562 317.503906 C 137.230469 316.882812 136.675781 316.207031 136.1875 315.476562 C 135.695312 314.746094 135.285156 313.972656 134.949219 313.160156 C 134.613281 312.347656 134.359375 311.511719 134.1875 310.648438 C 134.015625 309.785156 133.929688 308.914062 133.929688 308.035156 C 133.929688 307.15625 134.015625 306.285156 134.1875 305.421875 C 134.359375 304.558594 134.613281 303.722656 134.949219 302.910156 C 135.285156 302.097656 135.695312 301.328125 136.1875 300.59375 C 136.675781 299.863281 137.230469 299.1875 137.851562 298.566406 C 138.472656 297.945312 139.148438 297.386719 139.878906 296.898438 C 140.613281 296.410156 141.382812 296 142.195312 295.664062 C 143.007812 295.324219 143.847656 295.070312 144.707031 294.898438 C 145.570312 294.730469 146.441406 294.644531 147.320312 294.644531 C 148.199219 294.644531 149.070312 294.558594 149.933594 294.386719 C 150.796875 294.214844 151.632812 293.960938 152.445312 293.625 C 153.257812 293.285156 154.03125 292.875 154.761719 292.386719 C 155.492188 291.898438 156.167969 291.34375 156.792969 290.71875 C 157.414062 290.097656 157.96875 289.421875 158.457031 288.691406 C 158.945312 287.960938 159.359375 287.1875 159.695312 286.375 C 160.03125 285.5625 160.285156 284.726562 160.457031 283.863281 C 160.628906 283 160.714844 282.128906 160.714844 281.25 L 160.714844 174.105469 C 160.714844 173.226562 160.628906 172.355469 160.457031 171.496094 C 160.285156 170.632812 160.03125 169.792969 159.695312 168.980469 C 159.359375 168.167969 158.945312 167.398438 158.457031 166.667969 C 157.96875 165.933594 157.414062 165.257812 156.792969 164.636719 C 156.167969 164.015625 155.492188 163.460938 154.761719 162.972656 C 154.03125 162.484375 153.257812 162.070312 152.445312 161.734375 C 151.632812 161.398438 150.796875 161.144531 149.933594 160.972656 C 149.070312 160.800781 148.199219 160.714844 147.320312 160.714844 C 146.441406 160.714844 145.570312 160.628906 144.707031 160.457031 C 143.847656 160.285156 143.007812 160.03125 142.195312 159.695312 C 141.382812 159.359375 140.613281 158.945312 139.878906 158.457031 C 139.148438 157.96875 138.472656 157.414062 137.851562 156.792969 C 137.230469 156.167969 136.675781 155.492188 136.1875 154.761719 C 135.695312 154.03125 135.285156 153.257812 134.949219 152.445312 C 134.613281 151.632812 134.359375 150.796875 134.1875 149.933594 C 134.015625 149.070312 133.929688 148.199219 133.929688 147.320312 C 133.929688 146.441406 134.015625 145.570312 134.1875 144.707031 C 134.359375 143.847656 134.613281 143.007812 134.949219 142.195312 C 135.285156 141.382812 135.695312 140.613281 136.1875 139.878906 C 136.675781 139.148438 137.230469 138.472656 137.851562 137.851562 C 138.472656 137.230469 139.148438 136.675781 139.878906 136.1875 C 140.613281 135.695312 141.382812 135.285156 142.195312 134.949219 C 143.007812 134.613281 143.847656 134.359375 144.707031 134.1875 C 145.570312 134.015625 146.441406 133.929688 147.320312 133.929688 L 200.894531 133.929688 C 201.773438 133.929688 202.644531 134.015625 203.503906 134.1875 C 204.367188 134.359375 205.207031 134.613281 206.019531 134.949219 C 206.832031 135.285156 207.601562 135.695312 208.332031 136.1875 C 209.066406 136.675781 209.742188 137.230469 210.363281 137.851562 C 210.984375 138.472656 211.539062 139.148438 212.027344 139.878906 C 212.515625 140.613281 212.929688 141.382812 213.265625 142.195312 C 213.601562 143.007812 213.855469 143.847656 214.027344 144.707031 C 214.199219 145.570312 214.285156 146.441406 214.285156 147.320312 L 214.285156 281.25 C 214.285156 282.128906 214.371094 283 214.542969 283.863281 C 214.714844 284.726562 214.96875 285.5625 215.304688 286.375 C 215.640625 287.1875 216.054688 287.960938 216.542969 288.691406 C 217.03125 289.421875 217.585938 290.097656 218.207031 290.71875 C 218.832031 291.34375 219.507812 291.898438 220.238281 292.386719 C 220.96875 292.875 221.742188 293.285156 222.554688 293.625 C 223.367188 293.960938 224.203125 294.214844 225.066406 294.386719 C 225.929688 294.558594 226.800781 294.644531 227.679688 294.644531 C 228.558594 294.644531 229.429688 294.730469 230.292969 294.898438 C 231.152344 295.070312 231.992188 295.324219 232.804688 295.664062 C 233.617188 296 234.386719 296.410156 235.121094 296.898438 C 235.851562 297.386719 236.527344 297.945312 237.148438 298.566406 C 237.769531 299.1875 238.324219 299.863281 238.8125 300.59375 C 239.304688 301.328125 239.714844 302.097656 240.050781 302.910156 C 240.386719 303.722656 240.640625 304.558594 240.8125 305.421875 C 240.984375 306.285156 241.070312 307.15625 241.070312 308.035156 Z M 241.070312 308.035156 " fill-opacity="1" fill-rule="nonzero"/></svg>